<svg width="174" height="71" viewBox="0 0 174 71" fill="none" xmlns="http://www.w3.org/2000/svg">
<rect width="174" height="71" fill="#E5E5E5"/>
<g id="&#208;&#159;&#209;&#128;&#208;&#190;&#208;&#179;&#209;&#128;&#208;&#176;&#208;&#188;&#208;&#188;&#209;&#139;" clip-path="url(#clip0_0_1)">
<rect width="1493" height="2647" transform="translate(-46.8359 -1266)" fill="white"/>
<path id="Rectangle 800" d="M-46.8359 -162H1446.16V1403H-46.8359V-162Z" fill="#F9F9F9"/>
<g id="Logo">
<g id="Group 1">
<path id="Vector" d="M12.4932 70.7011H15.5589V58.2202L21.1081 66.4076H21.2094L26.809 58.17V70.7011H29.9252V53.2277H26.6063L21.2094 61.4899L15.8125 53.2277H12.4932V70.7011ZM78.0263 60.04C79.316 60.04 80.3618 61.0702 80.3618 62.3408C80.3618 63.6119 79.316 64.642 78.0263 64.642C76.7361 64.642 75.6905 63.6119 75.6905 62.3408C75.6905 61.0702 76.7361 60.04 78.0263 60.04ZM124.836 65.1844H126.533L127.471 54.1014V53.2277H123.873V54.1014L124.836 65.1844ZM123.999 70.7011H127.37V67.2813H123.999V70.7011ZM102.615 70.7011H105.808L107.632 66.4824H116.019L117.817 70.7011H121.111L113.308 53.1028H110.419L102.615 70.7011ZM108.773 63.7615L111.812 56.7722L114.878 63.7615H108.773ZM85.1621 70.7011H88.2787V65.6337L91.0406 62.838L97.0957 70.7011H100.871L93.1686 60.7411L100.541 53.2277H96.716L88.2787 62.014V53.2277H85.1621V70.7011ZM55.9707 70.7011H58.9096L67.854 57.9704V70.7011H70.9197V53.2277H68.0057L59.0364 65.9832V53.2277H55.9707V70.7011ZM42.9224 71.0004C48.3698 71.0004 52.2212 66.8816 52.2212 61.9643C52.2212 56.9969 48.4207 52.9277 42.9733 52.9277C37.5255 52.9277 33.6742 57.0465 33.6742 61.9643C33.6742 66.9317 37.4751 71.0004 42.9224 71.0004ZM42.9733 68.1797C39.4514 68.1797 36.9432 65.3589 36.9432 61.9643C36.9432 58.5196 39.4006 55.7485 42.9224 55.7485C46.4445 55.7485 48.9527 58.5692 48.9527 61.9643C48.9527 65.409 46.4948 68.1797 42.9733 68.1797Z" fill="black"/>
<path id="Vector_2" d="M136.514 70.7011H143.078C149.296 70.7011 152.923 66.9568 152.923 61.9142C152.923 56.8218 149.346 53.2277 143.176 53.2277H136.514V70.7011ZM141.301 66.4076V57.4709H143.25C146.113 57.4709 148.013 59.1435 148.013 61.9392C148.013 64.8101 146.113 66.4076 143.25 66.4076H141.301ZM163.118 71.0004C167.314 71.0004 170.103 68.8788 170.103 65.3093C170.103 61.9893 167.635 60.6913 163.661 59.8177C161.268 59.2684 160.675 58.9189 160.675 58.1198C160.675 57.4462 161.243 56.9467 162.403 56.9467C163.933 56.9467 165.66 57.5461 167.239 58.6691L169.633 55.2494C167.758 53.7267 165.462 52.9277 162.527 52.9277C158.381 52.9277 155.839 55.2745 155.839 58.5196C155.839 62.164 158.677 63.2122 162.353 64.0609C164.698 64.6101 165.265 65.0097 165.265 65.7336C165.265 66.5325 164.574 66.9815 163.292 66.9815C161.293 66.9815 159.393 66.2576 157.69 64.8849L155.025 68.1049C157.147 70.0269 160.059 71.0004 163.118 71.0004Z" fill="#00A0E3"/>
<path id="Vector_3" d="M65.3428 36.5054C69.872 29.7029 69.7757 21.9121 73.2734 14.5664C77.7954 5.06896 87.6679 -1.30476 98.4757 0.2272C104.042 1.0158 109.254 3.87103 113.087 8.43725C113.969 9.48782 114.569 10.3321 115.253 11.5135C118.234 16.6615 119.11 22.4868 117.906 27.9155C115.471 38.8933 105.403 45.8259 94.3765 46.2621C86.6178 46.5693 79.3995 44.1771 71.8474 45.897C69.1473 46.5112 65.6375 47.2464 63.7616 44.5139C61.6993 41.5091 63.6685 39.0206 65.3428 36.5054ZM68.7701 38.7324C68.2321 39.5403 67.4082 40.6262 67.1381 41.4824C66.9575 42.0549 67.3321 42.4845 67.9234 42.4838C68.8482 42.4825 70.001 42.1466 70.9302 41.9363C79.3719 40.0139 86.0493 42.5771 94.3132 42.1656C103.463 41.7098 111.843 36.2578 113.883 27.0566C114.873 22.5929 114.145 17.7905 111.681 13.5334C111.147 12.6119 110.62 11.8488 109.934 11.03C106.766 7.25731 102.473 4.89994 97.8964 4.25146C88.6968 2.94788 80.5908 8.55872 76.8723 16.6242C73.3799 24.1983 73.6736 31.3678 68.7701 38.7324Z" fill="#00A0E3"/>
</g>
</g>
</g>
<rect id="Rectangle 816" x="-4605.67" y="-2570.79" width="8837.67" height="8097.45" rx="856" stroke="black" stroke-width="8"/>
<defs>
<clipPath id="clip0_0_1">
<rect width="1493" height="2647" fill="white" transform="translate(-46.8359 -1266)"/>
</clipPath>
</defs>
</svg>
